<svg width="157" height="60" viewBox="0 0 157 60" fill="none" xmlns="http://www.w3.org/2000/svg">
<g clip-path="url(#clip0_1_903)">
<path fill-rule="evenodd" clip-rule="evenodd" d="M75.8543 27.9905C77.0769 15.0503 83.9334 2.59909 94.2397 0C82.5006 7.25695 82.3059 15.212 81.2274 30.7237C79.8179 47.6592 70.4773 55.6379 58.7227 60C70.5046 50.3924 74.5694 47.2648 75.8543 27.9905Z" fill="#58B6D7"/>
<path fill-rule="evenodd" clip-rule="evenodd" d="M20.5736 38.0792C21.2004 38.0792 21.7377 37.6572 22.0881 37.0499L27.0758 27.9511L25.8026 37.1721C25.7325 37.6848 26.0635 38.0792 26.5735 38.0792H29.739C30.2452 38.0792 30.689 37.6848 30.7591 37.1721L32.7448 22.812C32.8149 22.2993 32.484 21.9049 31.9739 21.9049H26.959C26.3633 21.9049 25.8532 22.3585 25.495 22.9935L20.7254 31.7886L18.3893 22.9895C18.2102 22.3545 17.8247 21.901 17.2251 21.901H12.2141C11.7079 21.901 11.2641 22.2954 11.194 22.8081L9.20825 37.1682C9.13817 37.6809 9.46912 38.0753 9.97918 38.0753H13.1446C13.6508 38.0753 14.0947 37.6809 14.1648 37.1682L15.4379 27.9471L17.9104 37.0499C18.0934 37.6533 18.5139 38.0792 19.1407 38.0792H20.5736ZM50.3398 31.548C50.846 31.548 51.2898 31.1536 51.3599 30.6409L51.4767 29.7929C52.2126 24.4725 49.417 21.6012 44.1023 21.6012C38.8188 21.6012 35.1861 24.5632 34.4346 30.0059C33.6793 35.4762 36.471 38.379 41.7818 38.379C46.5553 38.379 49.8998 37.2904 50.3359 34.1471C50.406 33.6344 50.0751 33.24 49.565 33.24H47.3846C46.637 33.24 46.0608 33.5436 45.6052 34.0248C45.0095 34.6598 43.857 35.0226 42.6033 35.0226C40.1543 35.0226 39.2276 33.9657 39.3522 31.544H50.3398V31.548ZM43.639 24.9576C45.8466 24.9576 46.7538 26.1684 46.5319 28.4362H39.7571C40.1893 26.1684 41.4898 24.9576 43.639 24.9576ZM59.9452 35.0266C58.3917 35.0266 57.6947 34.2417 57.8427 33.1808C57.979 32.183 58.894 31.3981 60.2995 31.3981H64.7771L64.4579 33.6975C63.3209 34.3601 61.7363 35.0266 59.9452 35.0266ZM62.6824 24.9576C64.6837 24.9576 65.5675 25.6833 65.2405 28.0418H60.4047C56.4955 28.0418 53.2717 29.7653 52.8005 33.1808C52.3294 36.5963 55.0666 38.379 58.9757 38.379C61.2729 38.379 63.0134 37.6848 64.489 36.7146L64.4267 37.1682C64.3566 37.6809 64.6876 38.0753 65.1976 38.0753H68.0049C68.5111 38.0753 68.9549 37.6809 69.025 37.1682L70.2865 28.0378C70.9251 23.4115 67.8024 21.5973 63.5078 21.5973C58.672 21.5973 55.417 22.6858 54.9848 25.8292C54.9147 26.3419 55.2457 26.7363 55.7558 26.7363H57.9362C58.6837 26.7363 59.26 26.4326 59.7155 25.9515C60.3034 25.3204 61.4559 24.9576 62.6824 24.9576Z" fill="#0069B4"/>
<path fill-rule="evenodd" clip-rule="evenodd" d="M103.514 23.2933C103.981 22.5084 103.974 21.9011 103.199 21.9011H100.454C99.5894 21.9011 98.6783 22.4453 98.1721 23.2933L96.3499 26.3183C95.579 27.5883 94.3448 28.314 92.6121 28.314L93.3714 22.8121C93.4415 22.2994 93.1105 21.905 92.6004 21.905H89.3454C88.8393 21.905 88.3954 22.2994 88.3253 22.8121L86.3396 37.1722C86.2695 37.6849 86.6005 38.0793 87.1105 38.0793H90.3655C90.8717 38.0793 91.3156 37.6849 91.3857 37.1722L92.1449 31.6703C93.4882 31.6703 94.7146 32.3053 95.3337 33.6344L96.7627 36.6871C97.1325 37.472 97.8529 38.0793 98.8107 38.0793H101.556C102.33 38.0793 102.622 37.4759 102.256 36.6871L100.341 32.6366C99.6478 31.1852 98.7795 30.3373 97.6037 29.9744C98.9236 29.7023 100.263 28.6453 101.077 27.3122L103.514 23.2933ZM112.158 35.0267C109.619 35.0267 108.603 33.5437 109.094 29.9784C109.588 26.409 111.013 24.9616 113.548 24.9616C116.086 24.9616 117.107 26.413 116.616 29.9784C116.125 33.5437 114.696 35.0267 112.158 35.0267ZM114.015 21.6013C119.657 21.6013 122.433 24.4134 121.662 29.9744C120.891 35.5355 117.336 38.3791 111.694 38.3791C106.053 38.3791 103.284 35.5355 104.051 29.9744C104.822 24.4134 108.373 21.6013 114.015 21.6013ZM134.721 38.0793C135.348 38.0793 135.885 37.6573 136.236 37.0499L141.223 27.9512L139.95 37.1722C139.88 37.6849 140.211 38.0793 140.721 38.0793H143.886C144.393 38.0793 144.836 37.6849 144.907 37.1722L146.892 22.8121C146.962 22.2994 146.631 21.905 146.121 21.905H141.102C140.507 21.905 139.997 22.3586 139.639 22.9935L134.873 31.7887L132.537 22.9896C132.358 22.3546 131.972 21.9011 131.372 21.9011H126.358C125.851 21.9011 125.408 22.2955 125.337 22.8082L123.352 37.1683C123.282 37.681 123.613 38.0754 124.123 38.0754H127.288C127.794 38.0754 128.238 37.681 128.308 37.1683L129.581 27.9472L132.054 37.046C132.237 37.6494 132.657 38.0754 133.284 38.0754H134.721V38.0793Z" fill="#0069B4"/>
<path fill-rule="evenodd" clip-rule="evenodd" d="M135.535 42.6465H80.764C82.4227 37.2432 82.8237 34.4863 83.3221 28.7675C83.6764 24.8511 83.8828 21.2739 84.5797 17.4207H85.8062C84.9808 21.1004 84.8756 24.8551 84.5135 28.7281C84.0385 33.8789 83.7387 36.691 82.0684 41.5421H135.535C143.022 41.5421 148.002 40.8283 152.565 33.6384C155.914 28.3613 156.957 18.5013 148.485 18.0635C158.413 17.1249 158.686 28.0103 154.271 34.372C149.073 41.8577 143.664 42.6465 135.535 42.6465Z" fill="#9D9D9C"/>
<path fill-rule="evenodd" clip-rule="evenodd" d="M20.1413 17.3535H76.0217C74.8419 20.9189 74.3202 23.6245 73.9892 26.4996C73.5337 30.4555 73.4052 34.1589 72.6226 38.095H71.3845C72.4396 33.9222 72.2761 30.487 72.7199 26.543C73.0314 23.7586 73.522 21.1595 74.5694 18.4578H19.8493C13.0434 18.4578 8.35941 20.1774 4.4347 26.3616C1.08624 31.6387 0.0427628 41.4987 8.51515 41.9364C-1.41343 42.8751 -1.68598 31.9897 2.72932 25.628C7.31983 19.0218 12.6618 17.3535 20.1413 17.3535Z" fill="#9D9D9C"/>
</g>
<defs>
<clipPath id="clip0_1_903">
<rect width="157" height="60" fill="white"/>
</clipPath>
</defs>
</svg>
